<?xml version="1.0" standalone="no"?>
<!DOCTYPE svg PUBLIC "-//W3C//DTD SVG 20010904//EN"
 "http://www.w3.org/TR/2001/REC-SVG-20010904/DTD/svg10.dtd">
<svg version="1.0" xmlns="http://www.w3.org/2000/svg"
 width="1101.000000pt" height="1280.000000pt" viewBox="0 0 1101.000000 1280.000000"
 preserveAspectRatio="xMidYMid meet">
<metadata>
Created by potrace 1.15, written by Peter Selinger 2001-2017
</metadata>
<g transform="translate(0.000000,1280.000000) scale(0.100000,-0.100000)"
fill="#ff9800" stroke="none">
<path d="M8393 11790 c-154 -10 -745 -44 -2098 -120 -1023 -57 -1431 -80
-1780 -100 -349 -20 -757 -43 -1780 -100 -1353 -76 -1267 -69 -1372 -116 -32
-14 -74 -27 -93 -28 -85 -7 -226 -106 -289 -204 -51 -80 -64 -128 -68 -242 -1
-58 -5 -154 -8 -215 -6 -106 1 -174 36 -365 5 -30 11 -168 14 -305 2 -138 8
-279 14 -315 19 -119 35 -433 33 -635 -3 -211 9 -414 33 -555 9 -53 16 -202
20 -400 6 -365 11 -428 32 -493 13 -41 13 -58 3 -113 -15 -79 -6 -253 21 -410
14 -80 19 -157 18 -285 0 -95 5 -210 11 -254 20 -145 48 -557 49 -730 1 -93 6
-199 12 -234 5 -35 9 -94 8 -130 -7 -240 -2 -358 19 -438 18 -68 20 -90 12
-134 -20 -105 -6 -405 23 -489 8 -23 12 -106 12 -240 0 -165 4 -220 19 -283
15 -64 16 -89 8 -145 -10 -74 -7 -197 9 -270 18 -88 30 -184 25 -197 -3 -8 1
-87 9 -177 7 -90 16 -212 19 -273 3 -60 10 -195 16 -300 6 -116 7 -217 1 -260
-4 -38 -6 -104 -4 -145 5 -71 8 -91 34 -192 7 -31 7 -70 -1 -137 -12 -104 -5
-225 17 -286 14 -38 18 -97 43 -545 21 -388 29 -487 45 -540 58 -191 200 -327
395 -376 68 -17 149 -17 520 6 85 5 241 14 345 20 105 5 267 15 360 20 404 24
891 52 1305 75 747 42 1328 74 1695 95 327 18 561 32 1695 95 497 28 974 55
1508 85 216 12 380 26 416 35 225 57 395 275 396 504 0 35 -18 223 -41 417
l-41 354 30 35 c66 74 105 163 122 274 9 58 3 133 -50 591 -33 289 -65 563
-70 610 -5 47 -37 321 -70 610 -33 289 -87 759 -120 1045 -33 286 -87 756
-120 1045 -33 289 -87 759 -120 1045 -33 286 -87 756 -120 1045 -33 289 -87
759 -120 1045 -33 286 -87 756 -120 1045 -33 289 -78 683 -100 875 -22 193
-45 373 -50 400 -34 166 -170 320 -339 383 -77 29 -210 36 -428 22z"/>
</g>
</svg>
